# xmcd
#
# Track frame offsets:
#	150
#	23822
#	45012
#	67956
#	87287
#	112352
#	151484
#
# Disc length: 2345 seconds
# Revision: 0
# Processed by: cddbd v1.5.2PL0 Copyright (c) Steve Scherf et al.
# Submitted via: dBpowerAMP V12.0
#
DISCID=4f092707
DTITLE=Buddy Guy - The Complete Vanguard Recordings [CD3]: Hold That Plane
DYEAR=1972
DGENRE=Blues
TTITLE0=Watermelon Man
TTITLE1=Hold That Plane
TTITLE2=I'm Ready
TTITLE3=You Don't Love Me
TTITLE4=Come See About Me
TTITLE5=Hello San Francisco
TTITLE6=My Time After Awhile
EXTD=
EXTT0=
EXTT1=
EXTT2=
EXTT3=
EXTT4=
EXTT5=
EXTT6=
PLAYORDER=
